{"title":"God Bless America [2011]eng_avi","uid":7336064,"size":2347118592,"categoryP":"video","categoryS":"movies","magnet":"?xt=urn:btih:7163c8fb3fba24a4eb5e81a89083f43baeea9b6c&amp;dn=God+Bless+America+%5B2011%5Deng_avi&amp;tr=udp%3A%2F%2Ftracker.openbittorrent.com%3A80&amp;tr=udp%3A%2F%2Fopen.demonii.com%3A1337&amp;tr=udp%3A%2F%2Ftracker.coppersurfer.tk%3A6969&amp;tr=udp%3A%2F%2Fexodus.desync.com%3A6969","seeders":0,"leechers":1,"uploader":"Aprelka","files":1,"time":1339076908,"description":" &lt;a href=&quot;http://www.postimg.com/72000/photo-71648.jpg&quot; rel=&quot;nofollow&quot; target=&quot;_NEW&quot;&gt;http://www.postimg.com/72000/photo-71648.jpg&lt;/a&gt; &lt;a href=&quot;\nhttp://www.postimg.com/72000/photo-71649.jpg&quot; rel=&quot;nofollow&quot; target=&quot;_NEW&quot;&gt;\nhttp://www.postimg.com/72000/photo-71649.jpg&lt;/a&gt; &lt;a href=&quot;\nhttp://www.postimg.com/72000/photo-71650.jpg&quot; rel=&quot;nofollow&quot; target=&quot;_NEW&quot;&gt;\nhttp://www.postimg.com/72000/photo-71650.jpg&lt;/a&gt; &lt;a href=&quot;\nhttp://www.postimg.com/72000/photo-71651.jpg&quot; rel=&quot;nofollow&quot; target=&quot;_NEW&quot;&gt;\nhttp://www.postimg.com/72000/photo-71651.jpg&lt;/a&gt;\n\n\n\n\nGeneral\nComplete name                    : God Bless America[2011]en.avi\nFormat                           : AVI\nFormat/Info                      : Audio Video Interleave\nFormat profile                   : OpenDML\nFile size                        : 2.19 GiB\nDuration                         : 1h 44mn\nOverall bit rate                 : 2 998 Kbps\nWriting application              : VirtualDubMod 1.5.10.1 (build 2439/release)\nWriting library                  : VirtualDubMod build 2439/release\n\nVideo\nID                               : 0\nFormat                           : MPEG-4 Visual\nCodec ID                         : DX50\nCodec ID/Hint                    : DivX 5\nDuration                         : 1h 44mn\nBit rate                         : 2 762 Kbps\nWidth                            : 720 pixels\nHeight                           : 306 pixels\nDisplay aspect ratio             : 2.35:1\nFrame rate                       : 23.976 fps\nResolution                       : 8 bits\nColorimetry                      : 4:2:0\nScan type                        : Progressive\nBits/(Pixel*Frame)               : 0.523\nStream size                      : 2.01 GiB (92%)\nWriting library                  : XviD 64\n\nAudio\nID                               : 1\nFormat                           : AC-3\nFormat/Info                      : Audio Coding 3\nCodec ID                         : 2000\nDuration                         : 1h 44mn\nBit rate mode                    : Constant\nBit rate                         : 224 Kbps\nChannel(s)                       : 2 channels\nChannel positions                : Front: L R\nSampling rate                    : 48.0 KHz\nStream size                      : 167 MiB (7%)\nAlignment                        : Aligned on interleaves\nInterleave, duration             : 42 ms (1.00 video frame)\nInterleave, preload duration     : 512 ms\n\n\n","torrent":{"xt":"urn:btih:7163c8fb3fba24a4eb5e81a89083f43baeea9b6c","amp;dn":"God+Bless+America+%5B2011%5Deng_avi","amp;tr":["udp%3A%2F%2Ftracker.openbittorrent.com%3A80","udp%3A%2F%2Fopen.demonii.com%3A1337","udp%3A%2F%2Ftracker.coppersurfer.tk%3A6969","udp%3A%2F%2Fexodus.desync.com%3A6969"],"infoHash":"7163c8fb3fba24a4eb5e81a89083f43baeea9b6c","infoHashBuffer":{"type":"Buffer","data":[113,99,200,251,63,186,36,164,235,94,129,168,144,131,244,59,174,234,155,108]},"announce":[],"urlList":[]}}